<svg width="120" height="100" viewBox="0 0 120 100" fill="none" xmlns="http://www.w3.org/2000/svg">
<g clip-path="url(#clip0_498_1046)">
<path d="M119.167 62.7904L60 27.1348L0.8328 62.7904L0 62.2869V63.2915L60 99.4506L120 63.2915V62.2869L119.167 62.7904Z" fill="#8891BB"/>
<path d="M60 98.4461L0 62.2869L60 26.1277L120 62.2869L60 98.4461Z" fill="#F2F5F9"/>
<path d="M75.8641 83.2099L59.8657 92.9173L20.1289 68.665L36.1249 58.9551L75.8641 83.2099Z" fill="#B9CC00"/>
<path d="M69.3241 38.0447L19.2721 68.2065L15.8977 66.1749L65.9497 36.0105L69.3241 38.0447Z" fill="#3A3A3A"/>
<path d="M17.9976 67.0767L17.6592 67.2821L17.4336 67.1443L17.772 66.9414L17.9976 67.0767Z" fill="white"/>
<path d="M66.7344 37.7064L66.0576 38.1148L65.832 37.9795L66.5088 37.5712L66.7344 37.7064ZM65.3808 38.5231L64.704 38.9315L64.4784 38.7937L65.1552 38.3878L65.3808 38.5231ZM64.0272 39.3398L63.36 39.7431L63.1344 39.6078L63.8112 39.1995L64.0272 39.3398ZM62.6736 40.154L61.9968 40.5623L61.7712 40.427L62.448 40.0187L62.6736 40.154ZM61.32 40.9706L60.6432 41.379L60.4176 41.2412L61.0944 40.8354L61.32 40.9706ZM59.9664 41.7873L59.28 42.1931L59.052 42.0579L59.7288 41.6495L59.9664 41.7873ZM58.6104 42.6015L57.9336 42.9998L57.708 42.8645L58.3848 42.4562L58.6104 42.6015ZM57.2568 43.4182L56.58 43.8265L56.3544 43.6887L57.0312 43.2829L57.2568 43.4182ZM55.9032 44.2348L55.2264 44.6407L55.0008 44.5054L55.6776 44.0971L55.9032 44.2348ZM54.5496 45.049L53.8728 45.4573L53.6472 45.3221L54.324 44.9137L54.5496 45.049ZM53.196 45.8657L52.5192 46.274L52.2936 46.1362L52.9704 45.7304L53.196 45.8657ZM51.84 46.6824L51.1632 47.0882L50.9376 46.9529L51.6144 46.5446L51.84 46.6824ZM50.4888 47.5091L49.812 47.9174L49.5864 47.7821L50.2632 47.3738L50.4888 47.5091ZM49.1352 48.3257L48.4584 48.7341L48.2328 48.5963L48.9096 48.1905L49.1352 48.3257ZM47.7816 49.1424L47.1048 49.5482L46.8792 49.413L47.556 49.0046L47.7816 49.1424ZM46.428 49.9566L45.7512 50.3649L45.5256 50.2296L46.2024 49.8213L46.428 49.9566ZM45.0744 50.7657L44.4 51.1691L44.1744 51.0313L44.8512 50.6255L45.0744 50.7657ZM43.7208 51.5824L43.044 51.9882L42.8184 51.853L43.4952 51.4446L43.7208 51.5824ZM42.3672 52.3966L41.6904 52.8049L41.4504 52.6696L42.1296 52.2613L42.3672 52.3966ZM41.0136 53.2133L40.3368 53.6216L40.1088 53.4838L40.788 53.078L41.0136 53.2133ZM39.6576 54.0224L38.9808 54.4283L38.7552 54.293L39.432 53.8846L39.6576 54.0224ZM38.304 54.8366L37.6272 55.2449L37.4016 55.1097L38.0784 54.7013L38.304 54.8366ZM36.96 55.6558L36.2832 56.0641L36.0576 55.9263L36.72 55.5255L36.96 55.6558ZM35.6064 56.4724L34.9296 56.8783L34.704 56.743L35.3808 56.3347L35.6064 56.4724ZM34.2432 57.2791L33.5664 57.6874L33.3408 57.5522L34.0176 57.1438L34.2432 57.2791ZM32.88 58.1033L32.2032 58.5116L31.9776 58.3738L32.6544 57.968L32.88 58.1033ZM31.5264 58.92L30.8496 59.3258L30.624 59.1905L31.3008 58.7822L31.5264 58.92ZM30.1728 59.7341L29.496 60.1425L29.2704 60.0072L29.9472 59.5989L30.1728 59.7341ZM28.8192 60.5508L28.1424 60.9592L27.9168 60.8214L28.5936 60.4155L28.8192 60.5508ZM27.4656 61.3675L26.7888 61.7733L26.5632 61.638L27.24 61.2297L27.4656 61.3675ZM26.112 62.1817L25.44 62.59L25.2144 62.4547L25.896 62.0389L26.112 62.1817ZM24.7584 62.9983L24.0816 63.4067L23.856 63.2689L24.5328 62.8631L24.7584 62.9983ZM23.4048 63.815L22.728 64.2208L22.5024 64.0856L23.1792 63.6772L23.4048 63.815ZM22.0512 64.6292L21.384 65.045L21.156 64.9098L21.84 64.4939L22.0512 64.6292ZM20.6976 65.4459L20.0208 65.8542L19.7928 65.7164L20.4696 65.3106L20.6976 65.4459ZM19.3416 66.2625L18.6648 66.6684L18.4392 66.5331L19.116 66.1248L19.3416 66.2625Z" fill="white"/>
<path d="M67.7495 37.0952L67.4111 37.3007L67.1855 37.1629L67.5239 36.96L67.7495 37.0952Z" fill="white"/>
<path d="M58.3945 80.1474C59.5013 77.5193 55.1222 72.9677 48.6134 69.9811C42.1046 66.9946 35.931 66.704 34.8242 69.3321C33.7173 71.9603 38.0965 76.5119 44.6052 79.4985C51.114 82.485 57.2877 82.7756 58.3945 80.1474Z" fill="#00E7FF"/>
<path d="M58.9705 38.9866L31.3777 55.7735L23.8225 51.4547L51.4153 34.6677L58.9705 38.9866Z" fill="#B9CC00"/>
<path d="M99.1895 69.2161L75.5927 83.4628L57.4775 72.7258L81.0743 58.4766L99.1895 69.2161Z" fill="#B9CC00"/>
<path d="M31.6223 49.1274H30.8711V51.8831C30.8742 51.9176 30.8861 51.9507 30.9055 51.9789C30.9249 52.0071 30.9511 52.0293 30.9815 52.0434C31.0638 52.0866 31.1546 52.1091 31.2467 52.1091C31.3388 52.1091 31.4296 52.0866 31.5119 52.0434C31.542 52.0289 31.568 52.0065 31.5873 51.9784C31.6067 51.9503 31.6187 51.9175 31.6223 51.8831V49.1274Z" fill="#443D31"/>
<path d="M31.2649 49.1675C32.3518 49.1675 33.2329 48.2478 33.2329 47.1133C33.2329 45.9788 32.3518 45.0591 31.2649 45.0591C30.178 45.0591 29.2969 45.9788 29.2969 47.1133C29.2969 48.2478 30.178 49.1675 31.2649 49.1675Z" fill="#C6E800"/>
<path d="M36.2231 46.3693H35.4719V49.1249C35.4753 49.1594 35.4872 49.1923 35.5066 49.2205C35.526 49.2486 35.5521 49.2709 35.5823 49.2852C35.6646 49.3284 35.7554 49.3509 35.8475 49.3509C35.9396 49.3509 36.0304 49.3284 36.1127 49.2852C36.1433 49.2714 36.1696 49.2492 36.1891 49.2209C36.2085 49.1927 36.2203 49.1595 36.2231 49.1249V46.3693Z" fill="#443D31"/>
<path d="M35.8657 46.4119C36.9526 46.4119 37.8337 45.4922 37.8337 44.3577C37.8337 43.2232 36.9526 42.3035 35.8657 42.3035C34.7788 42.3035 33.8977 43.2232 33.8977 44.3577C33.8977 45.4922 34.7788 46.4119 35.8657 46.4119Z" fill="#C6E800"/>
<path d="M45.8015 41.121H45.0503V43.8766C45.0526 43.9114 45.0642 43.9448 45.0837 43.9731C45.1032 44.0015 45.1298 44.0236 45.1607 44.0369C45.2426 44.0813 45.3336 44.1045 45.4259 44.1045C45.5182 44.1045 45.6092 44.0813 45.6911 44.0369C45.7216 44.0231 45.748 44.0009 45.7674 43.9726C45.7869 43.9444 45.7986 43.9112 45.8015 43.8766V41.121Z" fill="#443D31"/>
<path d="M45.4441 41.1636C46.531 41.1636 47.4121 40.2439 47.4121 39.1094C47.4121 37.9749 46.531 37.0552 45.4441 37.0552C44.3572 37.0552 43.4761 37.9749 43.4761 39.1094C43.4761 40.2439 44.3572 41.1636 45.4441 41.1636Z" fill="#C6E800"/>
<path d="M81.0745 56.4675L74.4097 52.4493V35.745L81.0745 39.7607V56.4675Z" fill="#E4E7EF"/>
<path d="M81.0745 39.7607L74.4097 35.745L81.0745 31.7292L87.7369 35.745L81.0745 39.7607Z" fill="#EDF1F9"/>
<path d="M79.8744 43.2128L75.6096 40.6425V38.3954L79.8744 40.9657V43.2128Z" fill="#6675FF"/>
<path d="M87.7369 52.4518L81.0745 56.4675V39.7607L87.7369 35.745V52.4518Z" fill="#8891BB"/>
<path d="M83.8728 42.2508L82.2744 43.2153V40.9657L83.8728 40.0012V42.2508Z" fill="#6675FF"/>
<path d="M86.5393 40.645L84.9385 41.6095V39.3599L86.5393 38.3954V40.645Z" fill="#6675FF"/>
<path d="M83.8728 45.6252L82.2744 46.5872V44.3401L83.8728 43.3756V45.6252Z" fill="#6675FF"/>
<path d="M86.5393 44.0169L84.9385 44.9814V42.7343L86.5393 41.7698V44.0169Z" fill="#6675FF"/>
<path d="M83.8728 48.9971L82.2744 49.9616V47.712L83.8728 46.75V48.9971Z" fill="#6675FF"/>
<path d="M86.5393 47.3913L84.9385 48.3558V46.1062L86.5393 45.1417V47.3913Z" fill="#6675FF"/>
<path d="M83.8728 52.532L82.2744 53.4964V51.2468L83.8728 50.2823V52.532Z" fill="#6675FF"/>
<path d="M86.5393 50.9261L84.9385 51.8906V49.641L86.5393 48.6765V50.9261Z" fill="#6675FF"/>
<path d="M79.8744 46.5872L75.6096 44.0169V41.7673L79.8744 44.3376V46.5872Z" fill="#6675FF"/>
<path d="M79.8744 49.9616L75.6096 47.3913V45.1417L79.8744 47.712V49.9616Z" fill="#6675FF"/>
<path d="M79.8744 53.4939L75.6096 50.9236V48.6765L79.8744 51.2468V53.4939Z" fill="#6675FF"/>
<path d="M81.0743 37.9945L77.2295 35.6773V34.9608L81.0743 37.2781V37.9945Z" fill="#E4E7EF"/>
<path d="M81.0745 37.9945L84.9193 35.6773V34.9608L81.0745 37.2781V37.9945Z" fill="#8891BB"/>
<path d="M23.3711 60.6059L16.7063 56.5902V30.2437L23.3711 34.2594V60.6059Z" fill="#E4E7EF"/>
<path d="M23.3711 34.2594L16.7063 30.2436L23.3711 26.2279L30.0335 30.2436L23.3711 34.2594Z" fill="#EDF1F9"/>
<path d="M22.1713 37.7141L17.9065 35.1438V32.8942L22.1713 35.4644V37.7141Z" fill="#84A6F4"/>
<path d="M30.0335 56.5903L23.3711 60.606V34.262L30.0335 30.2462V56.5903Z" fill="#8891BB"/>
<path d="M26.1697 36.7521L24.5713 37.7165V35.4669L26.1697 34.5024V36.7521Z" fill="#84A6F4"/>
<path d="M28.8359 35.1462L27.2351 36.1082V33.8586L28.8359 32.8966V35.1462Z" fill="#84A6F4"/>
<path d="M26.1697 40.1239L24.5713 41.0884V38.8388L26.1697 37.8768V40.1239Z" fill="#84A6F4"/>
<path d="M28.8359 38.5182L27.2351 39.4827V37.233L28.8359 36.2686V38.5182Z" fill="#84A6F4"/>
<path d="M26.1697 43.4984L24.5713 44.4629V42.2133L26.1697 41.2488V43.4984Z" fill="#84A6F4"/>
<path d="M28.8359 41.8926L27.2351 42.8545V40.6074L28.8359 39.6429V41.8926Z" fill="#84A6F4"/>
<path d="M26.1697 47.0331L24.5713 47.995V45.7479L26.1697 44.7834V47.0331Z" fill="#84A6F4"/>
<path d="M28.8359 45.4248L27.2351 46.3893V44.1397L28.8359 43.1777V45.4248Z" fill="#84A6F4"/>
<path d="M26.1697 50.8059L24.5713 51.7704V49.5208L26.1697 48.5563V50.8059Z" fill="#84A6F4"/>
<path d="M28.8359 49.2001L27.2351 50.162V47.9149L28.8359 46.9504V49.2001Z" fill="#84A6F4"/>
<path d="M26.1697 54.6638L24.5713 55.6283V53.3787L26.1697 52.4142V54.6638Z" fill="#84A6F4"/>
<path d="M28.8359 53.058L27.2351 54.0199V51.7728L28.8359 50.8083V53.058Z" fill="#84A6F4"/>
<path d="M22.1713 41.0884L17.9065 38.5182V36.2686L22.1713 38.8388V41.0884Z" fill="#84A6F4"/>
<path d="M22.1713 44.4604L17.9065 41.8901V39.6405L22.1713 42.2108V44.4604Z" fill="#84A6F4"/>
<path d="M22.1713 47.9951L17.9065 45.4248V43.1752L22.1713 45.7454V47.9951Z" fill="#84A6F4"/>
<path d="M22.1713 51.7703L17.9065 49.2V46.9504L22.1713 49.5207V51.7703Z" fill="#84A6F4"/>
<path d="M22.1713 55.6282L17.9065 53.058V50.8083L22.1713 53.3786V55.6282Z" fill="#84A6F4"/>
<path d="M23.3712 32.4958L19.5264 30.1785V29.462L23.3712 31.7793V32.4958Z" fill="#E4E7EF"/>
<path d="M23.3711 32.4958L27.2159 30.1785V29.462L23.3711 31.7793V32.4958Z" fill="#8891BB"/>
<path d="M23.3711 60.6059L16.7063 56.5902V30.2437L23.3711 34.2594V60.6059Z" fill="#E4E7EF"/>
<path d="M23.3711 34.2594L16.7063 30.2436L23.3711 26.2279L30.0359 30.2436L23.3711 34.2594Z" fill="#EDF1F9"/>
<path d="M22.1713 37.7141L17.9065 35.1438V32.8942L22.1713 35.4644V37.7141Z" fill="#6675FF"/>
<path d="M30.0359 56.5903L23.3711 60.606V34.262L30.0359 30.2462V56.5903Z" fill="#8891BB"/>
<path d="M26.1697 36.7521L24.5713 37.7165V35.4669L26.1697 34.5024V36.7521Z" fill="#6675FF"/>
<path d="M28.8359 35.1462L27.2351 36.1082V33.8586L28.8359 32.8966V35.1462Z" fill="#6675FF"/>
<path d="M26.1697 40.1239L24.5713 41.0884V38.8388L26.1697 37.8768V40.1239Z" fill="#6675FF"/>
<path d="M28.8359 38.5182L27.2351 39.4827V37.233L28.8359 36.2686V38.5182Z" fill="#6675FF"/>
<path d="M26.1697 43.4984L24.5713 44.4629V42.2133L26.1697 41.2488V43.4984Z" fill="#6675FF"/>
<path d="M28.8359 41.8926L27.2351 42.8545V40.6074L28.8359 39.6429V41.8926Z" fill="#6675FF"/>
<path d="M26.1697 47.0331L24.5713 47.995V45.7479L26.1697 44.7834V47.0331Z" fill="#6675FF"/>
<path d="M28.8359 45.4248L27.2351 46.3893V44.1397L28.8359 43.1777V45.4248Z" fill="#6675FF"/>
<path d="M26.1697 50.8059L24.5713 51.7704V49.5208L26.1697 48.5563V50.8059Z" fill="#6675FF"/>
<path d="M28.8359 49.2001L27.2351 50.162V47.9149L28.8359 46.9504V49.2001Z" fill="#6675FF"/>
<path d="M26.1697 54.6638L24.5713 55.6283V53.3787L26.1697 52.4142V54.6638Z" fill="#6675FF"/>
<path d="M28.8359 53.058L27.2351 54.0199V51.7728L28.8359 50.8083V53.058Z" fill="#6675FF"/>
<path d="M22.1713 41.0884L17.9065 38.5182V36.2686L22.1713 38.8388V41.0884Z" fill="#6675FF"/>
<path d="M22.1713 44.4604L17.9065 41.8901V39.6405L22.1713 42.2108V44.4604Z" fill="#6675FF"/>
<path d="M22.1713 47.9951L17.9065 45.4248V43.1752L22.1713 45.7454V47.9951Z" fill="#6675FF"/>
<path d="M22.1713 51.7703L17.9065 49.2V46.9504L22.1713 49.5207V51.7703Z" fill="#6675FF"/>
<path d="M22.1713 55.6282L17.9065 53.058V50.8083L22.1713 53.3786V55.6282Z" fill="#6675FF"/>
<path d="M23.3712 32.4958L19.5264 30.1785V29.462L23.3712 31.7793V32.4958Z" fill="#E4E7EF"/>
<path d="M23.3711 32.4958L27.2183 30.1785V29.462L23.3711 31.7793V32.4958Z" fill="#8891BB"/>
<path d="M53.3377 56.7155L46.6753 52.6998V26.3557L53.3377 30.3715V56.7155Z" fill="#E4E7EF"/>
<path d="M53.3377 30.3714L46.6729 26.3557L53.3377 22.34L60.0025 26.3557L53.3377 30.3714Z" fill="#EDF1F9"/>
<path d="M52.14 33.8235L47.8728 31.2532V29.0061L52.14 31.5764V33.8235Z" fill="#6675FF"/>
<path d="M60.0025 52.6998L53.3376 56.7155V30.3715L60.0025 26.3557V52.6998Z" fill="#8891BB"/>
<path d="M56.136 32.8616L54.5376 33.826V31.5764L56.136 30.6119V32.8616Z" fill="#6675FF"/>
<path d="M58.8025 31.2557L57.2041 32.2202V29.9706L58.8025 29.0061V31.2557Z" fill="#6675FF"/>
<path d="M56.136 36.2359L54.5376 37.1979V34.9508L56.136 33.9863V36.2359Z" fill="#6675FF"/>
<path d="M58.8025 34.6277L57.2041 35.5922V33.3426L58.8025 32.3806V34.6277Z" fill="#6675FF"/>
<path d="M56.136 39.608L54.5376 40.5724V38.3228L56.136 37.3608V39.608Z" fill="#6675FF"/>
<path d="M58.8025 38.0021L57.2041 38.9665V36.7169L58.8025 35.7524V38.0021Z" fill="#6675FF"/>
<path d="M56.136 43.1427L54.5376 44.1072V41.8575L56.136 40.8931V43.1427Z" fill="#6675FF"/>
<path d="M58.8025 41.5369L57.2041 42.4988V40.2517L58.8025 39.2872V41.5369Z" fill="#6675FF"/>
<path d="M56.136 46.9153L54.5376 47.8798V45.6302L56.136 44.6682V46.9153Z" fill="#6675FF"/>
<path d="M58.8025 45.3095L57.2041 46.274V44.0244L58.8025 43.0599V45.3095Z" fill="#6675FF"/>
<path d="M56.136 50.7732L54.5376 51.7377V49.4881L56.136 48.5261V50.7732Z" fill="#6675FF"/>
<path d="M58.8025 49.1675L57.2041 50.1319V47.8823L58.8025 46.9178V49.1675Z" fill="#6675FF"/>
<path d="M52.14 37.1979L47.8728 34.6277V32.3781L52.14 34.9483V37.1979Z" fill="#6675FF"/>
<path d="M52.14 40.5723L47.8728 37.9995V35.7524L52.14 38.3227V40.5723Z" fill="#6675FF"/>
<path d="M52.14 44.1046L47.8728 41.5343V39.2872L52.14 41.855V44.1046Z" fill="#6675FF"/>
<path d="M52.14 47.8798L47.8728 45.3096V43.0599L52.14 45.6302V47.8798Z" fill="#6675FF"/>
<path d="M52.14 51.7377L47.8728 49.1675V46.9178L52.14 49.4881V51.7377Z" fill="#6675FF"/>
<path d="M53.3375 28.6053L49.4927 26.288V25.5715L53.3375 27.8888V28.6053Z" fill="#E4E7EF"/>
<path d="M53.3376 28.6053L57.1848 26.288V25.5715L53.3376 27.8888V28.6053Z" fill="#8891BB"/>
<path d="M14.7071 65.7466L8.04468 61.7308V45.024L14.7071 49.0398V65.7466Z" fill="#E4E7EF"/>
<path d="M14.7071 49.0398L8.04468 45.024L14.7071 41.0083L21.3719 45.024L14.7071 49.0398Z" fill="#EDF1F9"/>
<path d="M13.5097 52.4943L9.24487 49.9241V47.6744L13.5097 50.2447V52.4943Z" fill="#6675FF"/>
<path d="M21.3721 61.7308L14.7073 65.7466V49.0423L21.3721 45.024V61.7308Z" fill="#8891BB"/>
<path d="M17.5056 51.5298L15.9072 52.4943V50.2447L17.5056 49.2827V51.5298Z" fill="#6675FF"/>
<path d="M20.1719 49.9241L18.5735 50.8885V48.6389L20.1719 47.6744V49.9241Z" fill="#6675FF"/>
<path d="M17.5056 54.9043L15.9072 55.8688V53.6191L17.5056 52.6547V54.9043Z" fill="#6675FF"/>
<path d="M20.1719 53.2984L18.5735 54.2604V52.0133L20.1719 51.0488V53.2984Z" fill="#6675FF"/>
<path d="M17.5056 58.2787L15.9072 59.2406V56.9935L17.5056 56.0291V58.2787Z" fill="#6675FF"/>
<path d="M20.1719 56.6703L18.5735 57.6348V55.3852L20.1719 54.4232V56.6703Z" fill="#6675FF"/>
<path d="M17.5056 61.8109L15.9072 62.7754V60.5258L17.5056 59.5638V61.8109Z" fill="#6675FF"/>
<path d="M20.1719 60.2052L18.5735 61.1697V58.9201L20.1719 57.9556V60.2052Z" fill="#6675FF"/>
<path d="M13.5097 55.8662L9.24487 53.2959V51.0488L13.5097 53.6166V55.8662Z" fill="#6675FF"/>
<path d="M13.5097 59.2407L9.24487 56.6704V54.4208L13.5097 56.991V59.2407Z" fill="#6675FF"/>
<path d="M13.5097 62.7754L9.24487 60.2052V57.9556L13.5097 60.5258V62.7754Z" fill="#6675FF"/>
<path d="M14.7071 47.2736L10.8623 44.9563V44.2399L14.7071 46.5571V47.2736Z" fill="#E4E7EF"/>
<path d="M14.7073 47.2736L18.5545 44.9563V44.2399L14.7073 46.5571V47.2736Z" fill="#8891BB"/>
<path d="M43.8096 62.2443L37.1472 58.2286V41.5243L43.8096 45.54V62.2443Z" fill="#E4E7EF"/>
<path d="M43.8096 45.5401L37.1472 41.5218L43.8096 37.5061L50.4744 41.5243L43.8096 45.5401Z" fill="#EDF1F9"/>
<path d="M42.6095 48.9922L38.3447 46.4219V44.1748L42.6095 46.7451V48.9922Z" fill="#6675FF"/>
<path d="M50.4744 58.2311L43.8096 62.2468V45.54L50.4744 41.5243V58.2311Z" fill="#8891BB"/>
<path d="M46.6079 48.0301L45.0095 48.9946V46.745L46.6079 45.7805V48.0301Z" fill="#6675FF"/>
<path d="M49.2744 46.4244L47.676 47.3889V45.1393L49.2744 44.1748V46.4244Z" fill="#6675FF"/>
<path d="M46.6079 51.4046L45.0095 52.3666V50.1195L46.6079 49.155V51.4046Z" fill="#6675FF"/>
<path d="M49.2744 49.7963L47.676 50.7608V48.5112L49.2744 47.5492V49.7963Z" fill="#6675FF"/>
<path d="M46.6079 54.7765L45.0095 55.7409V53.4913L46.6079 52.5269V54.7765Z" fill="#6675FF"/>
<path d="M49.2744 53.1708L47.676 54.1352V51.8856L49.2744 50.9211V53.1708Z" fill="#6675FF"/>
<path d="M46.6079 58.3113L45.0095 59.2757V57.0261L46.6079 56.0616V58.3113Z" fill="#6675FF"/>
<path d="M49.2744 56.7054L47.676 57.6674V55.4203L49.2744 54.4558V56.7054Z" fill="#6675FF"/>
<path d="M42.6095 52.3665L38.3447 49.7962V47.5466L42.6095 50.1169V52.3665Z" fill="#6675FF"/>
<path d="M42.6095 55.7385L38.3447 53.1683V50.9211L42.6095 53.4914V55.7385Z" fill="#6675FF"/>
<path d="M42.6095 59.2733L38.3447 56.703V54.4534L42.6095 57.0236V59.2733Z" fill="#6675FF"/>
<path d="M43.8096 43.774L39.9648 41.4567V40.7402L43.8096 43.0575V43.774Z" fill="#E4E7EF"/>
<path d="M43.8096 43.774L47.6568 41.4567V40.7402L43.8096 43.0575V43.774Z" fill="#8891BB"/>
<path d="M67.8959 64.2159L57.4751 57.938V6.69287L67.8959 12.9733V64.2159Z" fill="#E4E7EF"/>
<path d="M66.6529 15.511L58.7017 10.7212V8.58679L66.6529 13.3766V15.511Z" fill="#6675FF"/>
<path d="M66.6529 17.9584L58.7017 13.1661V11.0317L66.6529 15.8241V17.9584Z" fill="#6675FF"/>
<path d="M66.6529 20.406L58.7017 15.6136V13.4792L66.6529 18.2691V20.406Z" fill="#6675FF"/>
<path d="M66.6529 22.851L58.7017 18.0611V15.9268L66.6529 20.7166V22.851Z" fill="#6675FF"/>
<path d="M66.6529 25.2985L58.7017 20.5087V18.3718L66.6529 23.1642V25.2985Z" fill="#6675FF"/>
<path d="M66.6529 27.7461L58.7017 22.9537V20.8193L66.6529 25.6117V27.7461Z" fill="#6675FF"/>
<path d="M66.6529 30.1935L58.7017 25.4012V23.2668L66.6529 28.0567V30.1935Z" fill="#6675FF"/>
<path d="M66.6529 32.6386L58.7017 27.8487V25.7144L66.6529 30.5042V32.6386Z" fill="#6675FF"/>
<path d="M66.6529 35.0861L58.7017 30.2963V28.1594L66.6529 32.9518V35.0861Z" fill="#6675FF"/>
<path d="M66.6529 37.5336L58.7017 32.7413V30.6069L66.6529 35.3993V37.5336Z" fill="#6675FF"/>
<path d="M66.6529 39.9787L58.7017 35.1888V33.0544L66.6529 37.8443V39.9787Z" fill="#6675FF"/>
<path d="M66.6529 42.4262L58.7017 37.6364V35.4995L66.6529 40.2918V42.4262Z" fill="#6675FF"/>
<path d="M66.6529 44.8737L58.7017 40.0814V37.947L66.6529 42.7394V44.8737Z" fill="#6675FF"/>
<path d="M66.6529 47.3212L58.7017 42.5289V40.3945L66.6529 45.1844V47.3212Z" fill="#6675FF"/>
<path d="M66.6529 49.7662L58.7017 44.9764V42.842L66.6529 47.6319V49.7662Z" fill="#6675FF"/>
<path d="M66.6529 52.2137L58.7017 47.4239V45.287L66.6529 50.0793V52.2137Z" fill="#6675FF"/>
<path d="M66.6529 54.6613L58.7017 49.869V47.7346L66.6529 52.5269V54.6613Z" fill="#6675FF"/>
<path d="M60.6599 51.0489L60.5208 50.9662V9.68152L60.6599 9.76669V51.0489Z" fill="#8891BB"/>
<path d="M62.6568 52.2538L62.52 52.1687V10.8865L62.6568 10.9691V52.2538Z" fill="#8891BB"/>
<path d="M64.656 53.4564L64.5168 53.3737V12.089L64.656 12.1742V53.4564Z" fill="#8891BB"/>
<path d="M67.8959 12.9732L57.4775 6.69286L67.8959 0.412476L78.3167 6.69286L67.8959 12.9732Z" fill="#EDF1F9"/>
<path d="M78.3168 57.938L67.896 64.2159V12.9733L78.3168 6.69287V57.938Z" fill="#8891BB"/>
<path d="M77.0735 10.7312L69.1223 15.5235V13.3866L77.0735 8.5968V10.7312Z" fill="#6675FF"/>
<path d="M77.0735 13.1787L69.1223 17.9685V15.8341L77.0735 11.0443V13.1787Z" fill="#6675FF"/>
<path d="M77.0735 15.6261L69.1223 20.416V18.2816L77.0735 13.4893V15.6261Z" fill="#6675FF"/>
<path d="M77.0735 18.0711L69.1223 22.8635V20.7266L77.0735 15.9368V18.0711Z" fill="#6675FF"/>
<path d="M77.0735 20.5188L69.1223 25.3086V23.1742L77.0735 18.3844V20.5188Z" fill="#6675FF"/>
<path d="M77.0735 22.9662L69.1223 27.7561V25.6217L77.0735 20.8293V22.9662Z" fill="#6675FF"/>
<path d="M77.0735 25.4112L69.1223 30.2036V28.0692L77.0735 23.2769V25.4112Z" fill="#6675FF"/>
<path d="M77.0735 27.8587L69.1223 32.6511V30.5142L77.0735 25.7244V27.8587Z" fill="#6675FF"/>
<path d="M77.0735 30.3063L69.1223 35.0961V32.9617L77.0735 28.1719V30.3063Z" fill="#6675FF"/>
<path d="M77.0735 32.7538L69.1223 37.5436V35.4093L77.0735 30.6169V32.7538Z" fill="#6675FF"/>
<path d="M77.0735 35.1988L69.1223 39.9912V37.8568L77.0735 33.0645V35.1988Z" fill="#6675FF"/>
<path d="M77.0735 37.6463L69.1223 42.4362V40.3018L77.0735 35.512V37.6463Z" fill="#6675FF"/>
<path d="M77.0735 40.0938L69.1223 44.8837V42.7493L77.0735 37.9595V40.0938Z" fill="#6675FF"/>
<path d="M77.0735 42.5389L69.1223 47.3312V45.1969L77.0735 40.4045V42.5389Z" fill="#6675FF"/>
<path d="M77.0735 44.9864L69.1223 49.7788V47.6419L77.0735 42.8521V44.9864Z" fill="#6675FF"/>
<path d="M77.0735 47.4339L69.1223 52.2238V50.0894L77.0735 45.2996V47.4339Z" fill="#6675FF"/>
<path d="M77.0735 49.8815L69.1223 54.6713V52.537L77.0735 47.7446V49.8815Z" fill="#6675FF"/>
<path d="M71.0809 53.4914L70.9441 53.5765V12.2918L71.0809 12.2067V53.4914Z" fill="#8891BB"/>
<path d="M73.0799 52.2888L72.9407 52.3715V11.0868L73.0799 11.0042V52.2888Z" fill="#8891BB"/>
<path d="M75.0767 51.0839L74.9375 51.1691V9.88437L75.0767 9.79919V51.0839Z" fill="#8891BB"/>
<path d="M51.0456 66.5932L46.7568 64.0079V58.4189L51.0456 61.0043V66.5932Z" fill="#E4E7EF"/>
<path d="M51.0432 61.0093L46.7544 58.424L50.5464 56.0441L54.8328 58.6294L51.0432 61.0093Z" fill="#EDF1F9"/>
<path d="M57.7105 70.6065L51.0457 66.5907V49.8865L57.7105 53.9022V70.6065Z" fill="#E4E7EF"/>
<path d="M57.7081 53.9022L51.0457 49.8865L57.7081 45.8707L64.3729 49.8865L57.7081 53.9022Z" fill="#EDF1F9"/>
<path d="M56.5104 57.3543L52.2456 54.784V52.5369L56.5104 55.1071V57.3543Z" fill="#6675FF"/>
<path d="M64.3728 66.5933L57.708 70.609V53.9022L64.3728 49.8865V66.5933Z" fill="#8891BB"/>
<path d="M60.5088 56.3923L58.908 57.3568V55.1072L60.5088 54.1427V56.3923Z" fill="#6675FF"/>
<path d="M63.1729 54.7865L61.5745 55.751V53.5013L63.1729 52.5369V54.7865Z" fill="#6675FF"/>
<path d="M60.5088 59.7667L58.908 60.7287V58.4816L60.5088 57.5171V59.7667Z" fill="#6675FF"/>
<path d="M63.1729 58.1585L61.5745 59.1229V56.8733L63.1729 55.9114V58.1585Z" fill="#6675FF"/>
<path d="M60.5088 63.1386L58.908 64.1031V61.8535L60.5088 60.889V63.1386Z" fill="#6675FF"/>
<path d="M63.1729 61.5328L61.5745 62.4973V60.2477L63.1729 59.2832V61.5328Z" fill="#6675FF"/>
<path d="M60.5088 66.6734L58.908 67.6379V65.3883L60.5088 64.4238V66.6734Z" fill="#6675FF"/>
<path d="M63.1729 65.0676L61.5745 66.0296V63.7825L63.1729 62.818V65.0676Z" fill="#6675FF"/>
<path d="M56.5104 60.7287L52.2456 58.1584V55.9088L56.5104 58.4791V60.7287Z" fill="#6675FF"/>
<path d="M56.5104 64.1031L52.2456 61.5303V59.2832L56.5104 61.8535V64.1031Z" fill="#6675FF"/>
<path d="M56.5104 67.6354L52.2456 65.0652V62.8156L56.5104 65.3883V67.6354Z" fill="#6675FF"/>
<path d="M50.388 64.1031L47.4624 62.3445V60.0974L50.388 61.8535V64.1031Z" fill="#6675FF"/>
<path d="M57.7105 52.1361L53.8633 49.8189V49.1024L57.7105 51.4197V52.1361Z" fill="#E4E7EF"/>
<path d="M57.7104 52.1361L61.5552 49.8189V49.1024L57.7104 51.4197V52.1361Z" fill="#8891BB"/>
<path d="M90.5376 62.1692L83.8728 58.1535V31.8094L90.5376 35.8252V62.1692Z" fill="#E4E7EF"/>
<path d="M90.5376 35.8252L83.8728 31.8094L90.5376 27.7937L97.2 31.8094L90.5376 35.8252Z" fill="#EDF1F9"/>
<path d="M89.3375 39.2797L85.0728 36.7095V34.4598L89.3375 37.0301V39.2797Z" fill="#6675FF"/>
<path d="M97.2 58.156L90.5376 62.1717V35.8277L97.2 31.8094V58.156Z" fill="#8891BB"/>
<path d="M93.3359 38.3152L91.7351 39.2797V37.0301L93.3359 36.0681V38.3152Z" fill="#6675FF"/>
<path d="M96 36.7095L94.4016 37.6739V35.4243L96 34.4598V36.7095Z" fill="#6675FF"/>
<path d="M93.3359 41.6897L91.7351 42.6542V40.4045L93.3359 39.4401V41.6897Z" fill="#6675FF"/>
<path d="M96 40.0838L94.4016 41.0483V38.7987L96 37.8342V40.0838Z" fill="#6675FF"/>
<path d="M93.3359 45.0641L91.7351 46.026V43.7789L93.3359 42.8145V45.0641Z" fill="#6675FF"/>
<path d="M96 43.4557L94.4016 44.4202V42.1706L96 41.2086V43.4557Z" fill="#6675FF"/>
<path d="M93.3359 48.5964L91.7351 49.5608V47.3112L93.3359 46.3492V48.5964Z" fill="#6675FF"/>
<path d="M96 46.9906L94.4016 47.9551V45.7054L96 44.741V46.9906Z" fill="#6675FF"/>
<path d="M93.3359 52.3716L91.7351 53.3336V51.0864L93.3359 50.1219V52.3716Z" fill="#6675FF"/>
<path d="M96 50.7632L94.4016 51.7277V49.4781L96 48.5161V50.7632Z" fill="#6675FF"/>
<path d="M93.3359 56.2295L91.7351 57.1914V54.9443L93.3359 53.9799V56.2295Z" fill="#6675FF"/>
<path d="M96 54.6211L94.4016 55.5856V53.336L96 52.374V54.6211Z" fill="#6675FF"/>
<path d="M89.3375 42.6516L85.0728 40.0813V37.8342L89.3375 40.402V42.6516Z" fill="#6675FF"/>
<path d="M89.3375 46.0261L85.0728 43.4558V41.2062L89.3375 43.7765V46.0261Z" fill="#6675FF"/>
<path d="M89.3375 49.5609L85.0728 46.9906V44.741L89.3375 47.3112V49.5609Z" fill="#6675FF"/>
<path d="M89.3375 53.3335L85.0728 50.7632V48.5161L89.3375 51.0864V53.3335Z" fill="#6675FF"/>
<path d="M89.3375 57.1914L85.0728 54.6211V52.374L89.3375 54.9443V57.1914Z" fill="#6675FF"/>
<path d="M90.5376 34.0615L86.6904 31.7417V31.0253L90.5376 33.3425V34.0615Z" fill="#E4E7EF"/>
<path d="M90.5376 34.0615L94.3824 31.7417V31.0253L90.5376 33.3425V34.0615Z" fill="#8891BB"/>
<path d="M101.066 68.1089L94.4016 64.0931V47.3864L101.066 51.4021V68.1089Z" fill="#E4E7EF"/>
<path d="M101.066 51.4021L94.4016 47.3863L101.066 43.3706L107.729 47.3863L101.066 51.4021Z" fill="#EDF1F9"/>
<path d="M99.8664 54.8566L95.6016 52.2864V50.0367L99.8664 52.607V54.8566Z" fill="#6675FF"/>
<path d="M107.729 64.0957L101.066 68.1114V51.4047L107.729 47.3889V64.0957Z" fill="#8891BB"/>
<path d="M103.865 53.8946L102.266 54.8591V52.6095L103.865 51.645V53.8946Z" fill="#6675FF"/>
<path d="M106.531 52.2889L104.93 53.2509V51.0038L106.531 50.0393V52.2889Z" fill="#6675FF"/>
<path d="M103.865 57.2667L102.266 58.2311V55.9815L103.865 55.0195V57.2667Z" fill="#6675FF"/>
<path d="M106.531 55.6609L104.93 56.6254V54.3757L106.531 53.4113V55.6609Z" fill="#6675FF"/>
<path d="M103.865 60.6411L102.266 61.6056V59.356L103.865 58.3915V60.6411Z" fill="#6675FF"/>
<path d="M106.531 59.0353L104.93 59.9972V57.7501L106.531 56.7856V59.0353Z" fill="#6675FF"/>
<path d="M103.865 64.1758L102.266 65.1377V62.8906L103.865 61.9261V64.1758Z" fill="#6675FF"/>
<path d="M106.531 62.5674L104.93 63.5319V61.2823L106.531 60.3203V62.5674Z" fill="#6675FF"/>
<path d="M99.8664 58.2312L95.6016 55.6609V53.4113L99.8664 55.9815V58.2312Z" fill="#6675FF"/>
<path d="M99.8664 61.603L95.6016 59.0328V56.7856L99.8664 59.3534V61.603Z" fill="#6675FF"/>
<path d="M99.8664 65.1377L95.6016 62.5675V60.3179L99.8664 62.8881V65.1377Z" fill="#6675FF"/>
<path d="M101.066 49.6385L97.2192 47.3212V46.6047L101.066 48.922V49.6385Z" fill="#E4E7EF"/>
<path d="M101.066 49.6385L104.911 47.3212V46.6047L101.066 48.922V49.6385Z" fill="#8891BB"/>
<path d="M82.6728 59.3108H81.9216V62.0664C81.9247 62.101 81.9366 62.134 81.956 62.1622C81.9754 62.1904 82.0016 62.2127 82.032 62.2268C82.1143 62.2699 82.2051 62.2924 82.2972 62.2924C82.3893 62.2924 82.4801 62.2699 82.5624 62.2268C82.5928 62.2127 82.6191 62.1904 82.6385 62.1622C82.6579 62.134 82.6697 62.101 82.6728 62.0664V59.3108Z" fill="#443D31"/>
<path d="M82.3152 59.3509C83.4021 59.3509 84.2832 58.4312 84.2832 57.2967C84.2832 56.1621 83.4021 55.2424 82.3152 55.2424C81.2283 55.2424 80.3472 56.1621 80.3472 57.2967C80.3472 58.4312 81.2283 59.3509 82.3152 59.3509Z" fill="#C6E800"/>
<path d="M78.1177 62.059H77.3665V64.8146C77.3692 64.8489 77.381 64.8818 77.4005 64.9097C77.4199 64.9375 77.4464 64.9592 77.4769 64.9724C77.5588 65.0168 77.6498 65.0399 77.7421 65.0399C77.8344 65.0399 77.9253 65.0168 78.0073 64.9724C78.0378 64.9592 78.0642 64.9375 78.0837 64.9097C78.1031 64.8818 78.1149 64.8489 78.1177 64.8146V62.059Z" fill="#443D31"/>
<path d="M77.76 62.1016C78.8469 62.1016 79.728 61.1819 79.728 60.0474C79.728 58.9129 78.8469 57.9932 77.76 57.9932C76.6731 57.9932 75.792 58.9129 75.792 60.0474C75.792 61.1819 76.6731 62.1016 77.76 62.1016Z" fill="#C6E800"/>
<path d="M73.2431 64.9674H72.4919V67.7231C72.495 67.7576 72.5069 67.7907 72.5263 67.8189C72.5457 67.847 72.572 67.8693 72.6023 67.8834C72.6846 67.9266 72.7754 67.9491 72.8675 67.9491C72.9596 67.9491 73.0505 67.9266 73.1327 67.8834C73.1631 67.8693 73.1894 67.847 73.2088 67.8189C73.2282 67.7907 73.24 67.7576 73.2431 67.7231V64.9674Z" fill="#443D31"/>
<path d="M72.8855 65.0075C73.9724 65.0075 74.8535 64.0878 74.8535 62.9533C74.8535 61.8187 73.9724 60.899 72.8855 60.899C71.7986 60.899 70.9175 61.8187 70.9175 62.9533C70.9175 64.0878 71.7986 65.0075 72.8855 65.0075Z" fill="#C6E800"/>
<path d="M68.4335 68.0513H67.6799V70.8069C67.683 70.8415 67.6949 70.8745 67.7143 70.9027C67.7337 70.9309 67.7599 70.9532 67.7903 70.9672C67.8726 71.0104 67.9634 71.0329 68.0555 71.0329C68.1476 71.0329 68.2385 71.0104 68.3207 70.9672C68.3511 70.9532 68.3774 70.9309 68.3968 70.9027C68.4162 70.8745 68.428 70.8415 68.4311 70.8069L68.4335 68.0513Z" fill="#443D31"/>
<path d="M68.0759 68.0888C69.1628 68.0888 70.0439 67.1691 70.0439 66.0346C70.0439 64.9001 69.1628 63.9803 68.0759 63.9803C66.989 63.9803 66.1079 64.9001 66.1079 66.0346C66.1079 67.1691 66.989 68.0888 68.0759 68.0888Z" fill="#C6E800"/>
<path d="M36.3288 60.864H35.5776V63.6197C35.5807 63.6542 35.5926 63.6873 35.612 63.7155C35.6314 63.7436 35.6577 63.7659 35.688 63.78C35.7703 63.8232 35.8611 63.8457 35.9532 63.8457C36.0453 63.8457 36.1362 63.8232 36.2184 63.78C36.2488 63.7659 36.2751 63.7436 36.2945 63.7155C36.3139 63.6873 36.3257 63.6542 36.3288 63.6197V60.864Z" fill="#443D31"/>
<path d="M35.9712 60.9041C37.0581 60.9041 37.9392 59.9844 37.9392 58.8499C37.9392 57.7154 37.0581 56.7957 35.9712 56.7957C34.8843 56.7957 34.0032 57.7154 34.0032 58.8499C34.0032 59.9844 34.8843 60.9041 35.9712 60.9041Z" fill="#C6E800"/>
<path d="M31.7737 63.6122H31.0225V66.3678C31.0248 66.4026 31.0364 66.436 31.0559 66.4643C31.0754 66.4927 31.102 66.5148 31.1329 66.5282C31.2148 66.5725 31.3058 66.5957 31.3981 66.5957C31.4904 66.5957 31.5813 66.5725 31.6633 66.5282C31.6941 66.5148 31.7208 66.4927 31.7403 66.4643C31.7598 66.436 31.7713 66.4026 31.7737 66.3678V63.6122Z" fill="#443D31"/>
<path d="M31.416 63.6547C32.5029 63.6547 33.384 62.735 33.384 61.6005C33.384 60.466 32.5029 59.5463 31.416 59.5463C30.3291 59.5463 29.448 60.466 29.448 61.6005C29.448 62.735 30.3291 63.6547 31.416 63.6547Z" fill="#C6E800"/>
<path d="M26.8991 66.5481H26.1599V69.3038C26.1627 69.3381 26.1744 69.371 26.1939 69.3988C26.2134 69.4267 26.2398 69.4484 26.2703 69.4616C26.3523 69.5059 26.4432 69.5291 26.5355 69.5291C26.6278 69.5291 26.7188 69.5059 26.8007 69.4616C26.8312 69.4484 26.8576 69.4267 26.8771 69.3988C26.8966 69.371 26.9083 69.3381 26.9111 69.3038L26.8991 66.5481Z" fill="#443D31"/>
<path d="M26.5415 66.5957C27.6284 66.5957 28.5095 65.676 28.5095 64.5415C28.5095 63.407 27.6284 62.4873 26.5415 62.4873C25.4546 62.4873 24.5735 63.407 24.5735 64.5415C24.5735 65.676 25.4546 66.5957 26.5415 66.5957Z" fill="#C6E800"/>
<path d="M86.8032 62.4899H86.052V65.2455C86.0549 65.2801 86.0666 65.3133 86.0861 65.3416C86.1055 65.3698 86.1319 65.392 86.1624 65.4059C86.2443 65.4502 86.3353 65.4734 86.4276 65.4734C86.5199 65.4734 86.6109 65.4502 86.6928 65.4059C86.7237 65.3925 86.7503 65.3704 86.7698 65.342C86.7893 65.3137 86.8009 65.2803 86.8032 65.2455V62.4899Z" fill="#443D31"/>
<path d="M86.4455 62.5324C87.5324 62.5324 88.4135 61.6127 88.4135 60.4782C88.4135 59.3436 87.5324 58.424 86.4455 58.424C85.3586 58.424 84.4775 59.3436 84.4775 60.4782C84.4775 61.6127 85.3586 62.5324 86.4455 62.5324Z" fill="#C6E800"/>
<path d="M82.248 65.2405H81.4968V67.9961C81.5004 68.0305 81.5125 68.0634 81.5318 68.0915C81.5511 68.1196 81.5771 68.142 81.6072 68.1565C81.6895 68.1996 81.7803 68.2221 81.8724 68.2221C81.9645 68.2221 82.0553 68.1996 82.1376 68.1565C82.168 68.1424 82.1942 68.1201 82.2137 68.0919C82.2331 68.0637 82.2449 68.0307 82.248 67.9961V65.2405Z" fill="#443D31"/>
<path d="M81.8904 65.2806C82.9773 65.2806 83.8584 64.3609 83.8584 63.2263C83.8584 62.0918 82.9773 61.1721 81.8904 61.1721C80.8035 61.1721 79.9224 62.0918 79.9224 63.2263C79.9224 64.3609 80.8035 65.2806 81.8904 65.2806Z" fill="#C6E800"/>
<path d="M77.6135 68.1815H76.8647V70.9372C76.8679 70.9714 76.8795 71.0042 76.8984 71.0323C76.9173 71.0604 76.943 71.0829 76.9727 71.0975C77.0555 71.1407 77.1467 71.1632 77.2391 71.1632C77.3316 71.1632 77.4228 71.1407 77.5055 71.0975C77.5353 71.0829 77.561 71.0604 77.5799 71.0323C77.5988 71.0042 77.6104 70.9714 77.6135 70.9372V68.1815Z" fill="#443D31"/>
<path d="M77.2583 68.2216C78.3452 68.2216 79.2263 67.3019 79.2263 66.1674C79.2263 65.0329 78.3452 64.1132 77.2583 64.1132C76.1714 64.1132 75.2903 65.0329 75.2903 66.1674C75.2903 67.3019 76.1714 68.2216 77.2583 68.2216Z" fill="#C6E800"/>
<path d="M73.224 70.8069H72.48V73.5625C72.4836 73.5969 72.4956 73.6298 72.515 73.6579C72.5343 73.686 72.5603 73.7084 72.5904 73.7229C72.6731 73.7661 72.7643 73.7886 72.8568 73.7886C72.9493 73.7886 73.0405 73.7661 73.1232 73.7229C73.153 73.7082 73.1786 73.6857 73.1975 73.6576C73.2165 73.6295 73.2281 73.5967 73.2312 73.5625L73.224 70.8069Z" fill="#443D31"/>
<path d="M72.8689 70.8395C73.9558 70.8395 74.8369 69.9198 74.8369 68.7853C74.8369 67.6508 73.9558 66.7311 72.8689 66.7311C71.782 66.7311 70.9009 67.6508 70.9009 68.7853C70.9009 69.9198 71.782 70.8395 72.8689 70.8395Z" fill="#C6E800"/>
<path d="M68.2727 73.8131H67.5215V76.5688C67.5246 76.6033 67.5365 76.6364 67.5559 76.6646C67.5753 76.6927 67.6015 76.715 67.6319 76.7291C67.7142 76.7723 67.805 76.7948 67.8971 76.7948C67.9892 76.7948 68.08 76.7723 68.1623 76.7291C68.1927 76.715 68.2189 76.6927 68.2383 76.6646C68.2577 76.6364 68.2696 76.6033 68.2727 76.5688V73.8131Z" fill="#443D31"/>
<path d="M67.9153 73.8482C69.0022 73.8482 69.8833 72.9285 69.8833 71.794C69.8833 70.6595 69.0022 69.7397 67.9153 69.7397C66.8284 69.7397 65.9473 70.6595 65.9473 71.794C65.9473 72.9285 66.8284 73.8482 67.9153 73.8482Z" fill="#C6E800"/>
<path d="M68.2727 79.8254H67.5215V82.5811C67.5238 82.6159 67.5354 82.6493 67.5549 82.6776C67.5744 82.7059 67.601 82.728 67.6319 82.7414C67.7138 82.7858 67.8048 82.8089 67.8971 82.8089C67.9894 82.8089 68.0803 82.7858 68.1623 82.7414C68.1931 82.728 68.2198 82.7059 68.2393 82.6776C68.2588 82.6493 68.2703 82.6159 68.2727 82.5811V79.8254Z" fill="#443D31"/>
<path d="M67.9153 79.8655C69.0022 79.8655 69.8833 78.9458 69.8833 77.8113C69.8833 76.6768 69.0022 75.7571 67.9153 75.7571C66.8284 75.7571 65.9473 76.6768 65.9473 77.8113C65.9473 78.9458 66.8284 79.8655 67.9153 79.8655Z" fill="#C6E800"/>
<path d="M63.7175 82.5811H62.9663V85.3367C62.9694 85.3713 62.9813 85.4043 63.0007 85.4325C63.0201 85.4607 63.0463 85.483 63.0767 85.497C63.159 85.5402 63.2498 85.5627 63.3419 85.5627C63.434 85.5627 63.5248 85.5402 63.6071 85.497C63.6375 85.483 63.6637 85.4607 63.6831 85.4325C63.7025 85.4043 63.7144 85.3713 63.7175 85.3367V82.5811Z" fill="#443D31"/>
<path d="M63.3601 82.6137C64.447 82.6137 65.3281 81.694 65.3281 80.5595C65.3281 79.4249 64.447 78.5052 63.3601 78.5052C62.2732 78.5052 61.3921 79.4249 61.3921 80.5595C61.3921 81.694 62.2732 82.6137 63.3601 82.6137Z" fill="#C6E800"/>
<path d="M58.8432 85.5145H58.092V88.2702C58.0951 88.3047 58.107 88.3378 58.1264 88.366C58.1458 88.3942 58.1721 88.4164 58.2024 88.4305C58.2847 88.4737 58.3755 88.4962 58.4676 88.4962C58.5597 88.4962 58.6506 88.4737 58.7328 88.4305C58.7632 88.4164 58.7895 88.3942 58.8089 88.366C58.8283 88.3378 58.8401 88.3047 58.8432 88.2702V85.5145Z" fill="#443D31"/>
<path d="M58.4856 85.5546C59.5725 85.5546 60.4536 84.6349 60.4536 83.5004C60.4536 82.3659 59.5725 81.4462 58.4856 81.4462C57.3987 81.4462 56.5176 82.3659 56.5176 83.5004C56.5176 84.6349 57.3987 85.5546 58.4856 85.5546Z" fill="#C6E800"/>
<path d="M82.6728 71.0574H81.9216V73.813C81.9247 73.8476 81.9366 73.8806 81.956 73.9088C81.9754 73.937 82.0016 73.9593 82.032 73.9734C82.1143 74.0165 82.2051 74.039 82.2972 74.039C82.3893 74.039 82.4801 74.0165 82.5624 73.9734C82.5928 73.9593 82.6191 73.937 82.6385 73.9088C82.6579 73.8806 82.6697 73.8476 82.6728 73.813V71.0574Z" fill="#443D31"/>
<path d="M82.3152 71.0974C83.4021 71.0974 84.2832 70.1777 84.2832 69.0432C84.2832 67.9087 83.4021 66.989 82.3152 66.989C81.2283 66.989 80.3472 67.9087 80.3472 69.0432C80.3472 70.1777 81.2283 71.0974 82.3152 71.0974Z" fill="#C6E800"/>
<path d="M78.1177 73.8131H77.3665V76.5688C77.3696 76.6033 77.3814 76.6364 77.4008 76.6646C77.4202 76.6927 77.4465 76.715 77.4769 76.7291C77.5591 76.7723 77.65 76.7948 77.7421 76.7948C77.8342 76.7948 77.925 76.7723 78.0073 76.7291C78.0376 76.715 78.0639 76.6927 78.0833 76.6646C78.1027 76.6364 78.1146 76.6033 78.1177 76.5688V73.8131Z" fill="#443D31"/>
<path d="M77.76 73.8482C78.8469 73.8482 79.728 72.9285 79.728 71.794C79.728 70.6595 78.8469 69.7397 77.76 69.7397C76.6731 69.7397 75.792 70.6595 75.792 71.794C75.792 72.9285 76.6731 73.8482 77.76 73.8482Z" fill="#C6E800"/>
<path d="M73.2431 76.749H72.4919V79.5047C72.495 79.5392 72.5069 79.5723 72.5263 79.6005C72.5457 79.6286 72.572 79.6509 72.6023 79.665C72.6846 79.7082 72.7754 79.7307 72.8675 79.7307C72.9596 79.7307 73.0505 79.7082 73.1327 79.665C73.1631 79.6509 73.1894 79.6286 73.2088 79.6005C73.2282 79.5723 73.24 79.5392 73.2431 79.5047V76.749Z" fill="#443D31"/>
<path d="M72.8855 76.7892C73.9724 76.7892 74.8535 75.8695 74.8535 74.735C74.8535 73.6005 73.9724 72.6808 72.8855 72.6808C71.7986 72.6808 70.9175 73.6005 70.9175 74.735C70.9175 75.8695 71.7986 76.7892 72.8855 76.7892Z" fill="#C6E800"/>
<path d="M91.7615 65.5461H91.0103V68.3018C91.013 68.3361 91.0248 68.369 91.0443 68.3969C91.0637 68.4247 91.0902 68.4464 91.1207 68.4596C91.2026 68.504 91.2935 68.5271 91.3859 68.5271C91.4782 68.5271 91.5691 68.504 91.6511 68.4596C91.6816 68.4464 91.708 68.4247 91.7275 68.3969C91.7469 68.369 91.7587 68.3361 91.7615 68.3018V65.5461Z" fill="#443D31"/>
<path d="M91.404 65.5962C92.4909 65.5962 93.372 64.6765 93.372 63.542C93.372 62.4075 92.4909 61.4878 91.404 61.4878C90.3171 61.4878 89.436 62.4075 89.436 63.542C89.436 64.6765 90.3171 65.5962 91.404 65.5962Z" fill="#C6E800"/>
<path d="M87.2063 68.3018H86.4551V71.0574C86.4582 71.092 86.47 71.125 86.4895 71.1532C86.5089 71.1814 86.5351 71.2037 86.5655 71.2177C86.6478 71.2609 86.7386 71.2834 86.8307 71.2834C86.9228 71.2834 87.0136 71.2609 87.0959 71.2177C87.1263 71.2037 87.1525 71.1814 87.1719 71.1532C87.1913 71.125 87.2032 71.092 87.2063 71.0574V68.3018Z" fill="#443D31"/>
<path d="M86.8489 68.3444C87.9358 68.3444 88.8169 67.4247 88.8169 66.2902C88.8169 65.1557 87.9358 64.236 86.8489 64.236C85.762 64.236 84.8809 65.1557 84.8809 66.2902C84.8809 67.4247 85.762 68.3444 86.8489 68.3444Z" fill="#C6E800"/>
</g>
<defs>
<clipPath id="clip0_498_1046">
<rect width="120" height="99.0382" fill="white" transform="translate(0 0.412476)"/>
</clipPath>
</defs>
</svg>
