<svg width="20" height="20" viewBox="0 0 20 20" fill="none" xmlns="http://www.w3.org/2000/svg">
<path d="M4.49992 4.50004H4.50909M4.49992 15.5H4.50909M2.66659 0.833374H17.3333C18.3458 0.833374 19.1666 1.65419 19.1666 2.66671V6.33337C19.1666 7.3459 18.3458 8.16671 17.3333 8.16671H2.66659C1.65406 8.16671 0.833252 7.3459 0.833252 6.33337V2.66671C0.833252 1.65419 1.65406 0.833374 2.66659 0.833374ZM2.66659 11.8334H17.3333C18.3458 11.8334 19.1666 12.6542 19.1666 13.6667V17.3334C19.1666 18.3459 18.3458 19.1667 17.3333 19.1667H2.66659C1.65406 19.1667 0.833252 18.3459 0.833252 17.3334V13.6667C0.833252 12.6542 1.65406 11.8334 2.66659 11.8334Z" stroke="#8B8B93" stroke-width="1.5" stroke-linecap="round" stroke-linejoin="round"/>
</svg>
