<svg width="36" height="19" viewBox="0 0 36 19" fill="none" xmlns="http://www.w3.org/2000/svg">
<g opacity="0.3">
<path d="M36 3.99694V11.0547C36 12.8333 34.5582 14.2751 32.7796 14.2751H4.93844C3.9646 14.2751 3.04298 14.7157 2.43167 15.4738L0.2045 18.2353C0.136411 18.3198 0 18.2716 0 18.1631V3.99694C0 2.21833 1.44184 0.776489 3.22045 0.776489H32.7796C34.5582 0.776489 36 2.21833 36 3.99694Z" fill="#2C2C35"/>
<path fill-rule="evenodd" clip-rule="evenodd" d="M7.82097 11.1279C9.98074 11.1279 11.7315 9.37716 11.7315 7.21739C11.7315 5.05762 9.98074 3.30685 7.82097 3.30685C5.6612 3.30685 3.91043 5.05762 3.91043 7.21739C3.91043 9.37716 5.6612 11.1279 7.82097 11.1279ZM7.82097 11.243C10.0442 11.243 11.8465 9.44065 11.8465 7.21739C11.8465 4.99413 10.0442 3.19183 7.82097 3.19183C5.59771 3.19183 3.79541 4.99413 3.79541 7.21739C3.79541 9.44065 5.59771 11.243 7.82097 11.243Z" fill="white"/>
<path fill-rule="evenodd" clip-rule="evenodd" d="M4.62695 9.66773C5.36283 8.70987 6.51989 8.09247 7.82106 8.09247C9.12235 8.09247 10.2793 8.70987 11.0152 9.66773C10.2793 10.6256 9.12235 11.243 7.82106 11.243C6.51989 11.243 5.36283 10.6256 4.62695 9.66773Z" fill="white"/>
<path d="M9.39657 6.2252C9.39657 7.06298 8.7174 7.74203 7.87962 7.74203C7.04185 7.74203 6.36279 7.06298 6.36279 6.2252C6.36279 5.38743 7.04185 4.70837 7.87962 4.70837C8.7174 4.70837 9.39657 5.38743 9.39657 6.2252Z" fill="white"/>
<path d="M31.4569 6.18223H15.4122C15.2851 6.18223 15.1821 6.07929 15.1821 5.9522C15.1821 5.82511 15.2851 5.72217 15.4122 5.72217H31.4569C31.584 5.72217 31.6869 5.82511 31.6869 5.9522C31.6869 6.07929 31.584 6.18223 31.4569 6.18223Z" fill="white"/>
<path d="M28.0064 9.0576H15.4122C15.2851 9.0576 15.1821 8.95466 15.1821 8.82757C15.1821 8.70047 15.2851 8.59753 15.4122 8.59753H28.0064C28.1335 8.59753 28.2364 8.70047 28.2364 8.82757C28.2364 8.95466 28.1335 9.0576 28.0064 9.0576Z" fill="white"/>
</g>
</svg>
